<?xml version="1.0" encoding="UTF-8" standalone="no"?>
<!DOCTYPE svg PUBLIC "-//W3C//DTD SVG 1.1//EN"
 "http://www.w3.org/Graphics/SVG/1.1/DTD/svg11.dtd">
<!-- Generated by graphviz version 7.0.1 (20221109.1506)
 -->
<!-- Title: pos Pages: 1 -->
<svg width="250pt" height="188pt"
 viewBox="0.00 0.00 250.00 188.00" xmlns="http://www.w3.org/2000/svg" xmlns:xlink="http://www.w3.org/1999/xlink">
<g id="graph0" class="graph" transform="scale(1 1) rotate(0) translate(4 184)">
<title>pos</title>
<polygon fill="white" stroke="none" points="-4,4 -4,-184 246,-184 246,4 -4,4"/>
<!-- POS -->
<g id="node1" class="node">
<title>POS</title>
<polygon fill="none" stroke="black" points="146,-180 92,-180 92,-144 146,-144 146,-180"/>
<text text-anchor="middle" x="119" y="-158.3" font-family="Times New Roman,serif" font-size="14.00">POS</text>
</g>
<!-- Employee Authentication System -->
<g id="node2" class="node">
<title>Employee Authentication System</title>
<polygon fill="none" stroke="black" points="219.5,-108 18.5,-108 18.5,-72 219.5,-72 219.5,-108"/>
<text text-anchor="middle" x="119" y="-86.3" font-family="Times New Roman,serif" font-size="14.00">Employee Authentication System</text>
</g>
<!-- POS&#45;&gt;Employee Authentication System -->
<g id="edge1" class="edge">
<title>POS&#45;&gt;Employee Authentication System</title>
<path fill="none" stroke="black" d="M119,-143.7C119,-135.64 119,-125.89 119,-116.98"/>
<ellipse fill="black" stroke="black" cx="119" cy="-112.6" rx="4" ry="4"/>
</g>
<!-- Employee Login -->
<g id="node3" class="node">
<title>Employee Login</title>
<polygon fill="none" stroke="black" points="108,-36 0,-36 0,0 108,0 108,-36"/>
<text text-anchor="middle" x="54" y="-14.3" font-family="Times New Roman,serif" font-size="14.00">Employee Login</text>
</g>
<!-- Employee Authentication System&#45;&gt;Employee Login -->
<g id="edge2" class="edge">
<title>Employee Authentication System&#45;&gt;Employee Login</title>
<path fill="none" stroke="black" d="M102.93,-71.7C94.75,-62.88 84.67,-52.03 75.8,-42.47"/>
<ellipse fill="black" stroke="black" cx="72.94" cy="-39.4" rx="4" ry="4"/>
</g>
<!-- Employee Logout -->
<g id="node4" class="node">
<title>Employee Logout</title>
<polygon fill="none" stroke="black" points="242,-36 126,-36 126,0 242,0 242,-36"/>
<text text-anchor="middle" x="184" y="-14.3" font-family="Times New Roman,serif" font-size="14.00">Employee Logout</text>
</g>
<!-- Employee Authentication System&#45;&gt;Employee Logout -->
<g id="edge3" class="edge">
<title>Employee Authentication System&#45;&gt;Employee Logout</title>
<path fill="none" stroke="black" d="M135.07,-71.7C143.25,-62.88 153.33,-52.03 162.2,-42.47"/>
<ellipse fill="black" stroke="black" cx="165.06" cy="-39.4" rx="4" ry="4"/>
</g>
<!-- \n -->
<g id="node5" class="node">
<title>\n</title>
<polygon fill="none" stroke="black" points="218,-180 164,-180 164,-144 218,-144 218,-180"/>
</g>
</g>
</svg>
