<?xml version="1.0" encoding="UTF-8" standalone="no"?>
<!DOCTYPE svg PUBLIC "-//W3C//DTD SVG 1.1//EN"
 "http://www.w3.org/Graphics/SVG/1.1/DTD/svg11.dtd">
<!-- Generated by graphviz version 7.0.1 (20221109.1506)
 -->
<!-- Title: pos Pages: 1 -->
<svg width="898pt" height="260pt"
 viewBox="0.00 0.00 898.00 260.00" xmlns="http://www.w3.org/2000/svg" xmlns:xlink="http://www.w3.org/1999/xlink">
<g id="graph0" class="graph" transform="scale(1 1) rotate(0) translate(4 256)">
<title>pos</title>
<polygon fill="white" stroke="none" points="-4,4 -4,-256 894,-256 894,4 -4,4"/>
<!-- POS -->
<g id="node1" class="node">
<title>POS</title>
<polygon fill="none" stroke="black" points="433,-252 379,-252 379,-216 433,-216 433,-252"/>
<text text-anchor="middle" x="406" y="-230.3" font-family="Times New Roman,serif" font-size="14.00">POS</text>
</g>
<!-- Employee Authentication System -->
<g id="node2" class="node">
<title>Employee Authentication System</title>
<polygon fill="none" stroke="black" points="267.5,-180 66.5,-180 66.5,-144 267.5,-144 267.5,-180"/>
<text text-anchor="middle" x="167" y="-158.3" font-family="Times New Roman,serif" font-size="14.00">Employee Authentication System</text>
</g>
<!-- POS&#45;&gt;Employee Authentication System -->
<g id="edge1" class="edge">
<title>POS&#45;&gt;Employee Authentication System</title>
<path fill="none" stroke="black" d="M378.58,-224.97C343.77,-214.77 282.49,-196.83 234.81,-182.86"/>
<ellipse fill="black" stroke="black" cx="230.7" cy="-181.66" rx="4" ry="4"/>
</g>
<!-- Inventory List -->
<g id="node5" class="node">
<title>Inventory List</title>
<polygon fill="none" stroke="red" points="380.5,-180 285.5,-180 285.5,-144 380.5,-144 380.5,-180"/>
<text text-anchor="middle" x="333" y="-158.3" font-family="Times New Roman,serif" font-size="14.00" fill="red">Inventory List</text>
</g>
<!-- POS&#45;&gt;Inventory List -->
<g id="edge4" class="edge">
<title>POS&#45;&gt;Inventory List</title>
<path fill="none" stroke="red" d="M387.96,-215.7C378.74,-206.86 367.4,-195.99 357.42,-186.41"/>
<ellipse fill="red" stroke="red" cx="354.34" cy="-183.46" rx="4" ry="4"/>
</g>
<!-- Product Purchase System -->
<g id="node6" class="node">
<title>Product Purchase System</title>
<polygon fill="none" stroke="red" points="559.5,-180 398.5,-180 398.5,-144 559.5,-144 559.5,-180"/>
<text text-anchor="middle" x="479" y="-158.3" font-family="Times New Roman,serif" font-size="14.00" fill="red">Product Purchase System</text>
</g>
<!-- POS&#45;&gt;Product Purchase System -->
<g id="edge5" class="edge">
<title>POS&#45;&gt;Product Purchase System</title>
<path fill="none" stroke="red" d="M424.04,-215.7C433.26,-206.86 444.6,-195.99 454.58,-186.41"/>
<ellipse fill="red" stroke="red" cx="457.66" cy="-183.46" rx="4" ry="4"/>
</g>
<!-- Billing Management -->
<g id="node14" class="node">
<title>Billing Management</title>
<polygon fill="none" stroke="red" points="702.5,-180 577.5,-180 577.5,-144 702.5,-144 702.5,-180"/>
<text text-anchor="middle" x="640" y="-158.3" font-family="Times New Roman,serif" font-size="14.00" fill="red">Billing Management</text>
</g>
<!-- POS&#45;&gt;Billing Management -->
<g id="edge13" class="edge">
<title>POS&#45;&gt;Billing Management</title>
<path fill="none" stroke="red" d="M433.3,-219.49C436.21,-218.24 439.14,-217.05 442,-216 465.28,-207.47 521.86,-192.52 568.61,-180.67"/>
<ellipse fill="red" stroke="red" cx="572.85" cy="-179.6" rx="4" ry="4"/>
</g>
<!-- Employee Login -->
<g id="node3" class="node">
<title>Employee Login</title>
<polygon fill="none" stroke="black" points="108,-108 0,-108 0,-72 108,-72 108,-108"/>
<text text-anchor="middle" x="54" y="-86.3" font-family="Times New Roman,serif" font-size="14.00">Employee Login</text>
</g>
<!-- Employee Authentication System&#45;&gt;Employee Login -->
<g id="edge2" class="edge">
<title>Employee Authentication System&#45;&gt;Employee Login</title>
<path fill="none" stroke="black" d="M138.78,-143.52C123.83,-134.26 105.33,-122.8 89.43,-112.95"/>
<ellipse fill="black" stroke="black" cx="85.69" cy="-110.63" rx="4" ry="4"/>
</g>
<!-- Employee Logout -->
<g id="node4" class="node">
<title>Employee Logout</title>
<polygon fill="none" stroke="black" points="242,-108 126,-108 126,-72 242,-72 242,-108"/>
<text text-anchor="middle" x="184" y="-86.3" font-family="Times New Roman,serif" font-size="14.00">Employee Logout</text>
</g>
<!-- Employee Authentication System&#45;&gt;Employee Logout -->
<g id="edge3" class="edge">
<title>Employee Authentication System&#45;&gt;Employee Logout</title>
<path fill="none" stroke="black" d="M171.2,-143.7C173.18,-135.56 175.58,-125.69 177.76,-116.7"/>
<ellipse fill="black" stroke="black" cx="178.78" cy="-112.48" rx="4" ry="4"/>
</g>
<!-- Payment System -->
<g id="node7" class="node">
<title>Payment System</title>
<polygon fill="none" stroke="red" points="403,-108 293,-108 293,-72 403,-72 403,-108"/>
<text text-anchor="middle" x="348" y="-86.3" font-family="Times New Roman,serif" font-size="14.00" fill="red">Payment System</text>
</g>
<!-- Product Purchase System&#45;&gt;Payment System -->
<g id="edge6" class="edge">
<title>Product Purchase System&#45;&gt;Payment System</title>
<path fill="none" stroke="red" d="M446.28,-143.52C428.64,-134.09 406.73,-122.38 388.08,-112.41"/>
<ellipse fill="red" stroke="red" cx="384.27" cy="-110.38" rx="4" ry="4"/>
</g>
<!-- Order Entry -->
<g id="node8" class="node">
<title>Order Entry</title>
<polygon fill="none" stroke="red" points="504.5,-108 421.5,-108 421.5,-72 504.5,-72 504.5,-108"/>
<text text-anchor="middle" x="463" y="-86.3" font-family="Times New Roman,serif" font-size="14.00" fill="red">Order Entry</text>
</g>
<!-- Product Purchase System&#45;&gt;Order Entry -->
<g id="edge7" class="edge">
<title>Product Purchase System&#45;&gt;Order Entry</title>
<path fill="none" stroke="red" d="M475.04,-143.7C473.18,-135.56 470.93,-125.69 468.87,-116.7"/>
<ellipse fill="red" stroke="red" cx="467.91" cy="-112.49" rx="4" ry="4"/>
</g>
<!-- Receipt Generation -->
<g id="node9" class="node">
<title>Receipt Generation</title>
<polygon fill="none" stroke="red" points="647,-108 523,-108 523,-72 647,-72 647,-108"/>
<text text-anchor="middle" x="585" y="-86.3" font-family="Times New Roman,serif" font-size="14.00" fill="red">Receipt Generation</text>
</g>
<!-- Product Purchase System&#45;&gt;Receipt Generation -->
<g id="edge8" class="edge">
<title>Product Purchase System&#45;&gt;Receipt Generation</title>
<path fill="none" stroke="red" d="M505.47,-143.52C519.37,-134.34 536.53,-123.01 551.35,-113.22"/>
<ellipse fill="red" stroke="red" cx="555.11" cy="-110.74" rx="4" ry="4"/>
</g>
<!-- Cart System -->
<g id="node10" class="node">
<title>Cart System</title>
<polygon fill="none" stroke="red" points="751,-108 665,-108 665,-72 751,-72 751,-108"/>
<text text-anchor="middle" x="708" y="-86.3" font-family="Times New Roman,serif" font-size="14.00" fill="red">Cart System</text>
</g>
<!-- Product Purchase System&#45;&gt;Cart System -->
<g id="edge9" class="edge">
<title>Product Purchase System&#45;&gt;Cart System</title>
<path fill="none" stroke="red" d="M538.52,-143.58C572.91,-133.42 616.97,-120.22 656,-108 656.09,-107.97 656.18,-107.94 656.26,-107.92"/>
<ellipse fill="red" stroke="red" cx="660.32" cy="-106.63" rx="4" ry="4"/>
</g>
<!-- Cart Append -->
<g id="node11" class="node">
<title>Cart Append</title>
<polygon fill="none" stroke="red" points="644.5,-36 555.5,-36 555.5,0 644.5,0 644.5,-36"/>
<text text-anchor="middle" x="600" y="-14.3" font-family="Times New Roman,serif" font-size="14.00" fill="red">Cart Append</text>
</g>
<!-- Cart System&#45;&gt;Cart Append -->
<g id="edge10" class="edge">
<title>Cart System&#45;&gt;Cart Append</title>
<path fill="none" stroke="red" d="M681.03,-71.52C666.74,-62.26 649.06,-50.8 633.87,-40.95"/>
<ellipse fill="red" stroke="red" cx="630.41" cy="-38.71" rx="4" ry="4"/>
</g>
<!-- Cart Remove -->
<g id="node12" class="node">
<title>Cart Remove</title>
<polygon fill="none" stroke="red" points="753.5,-36 662.5,-36 662.5,0 753.5,0 753.5,-36"/>
<text text-anchor="middle" x="708" y="-14.3" font-family="Times New Roman,serif" font-size="14.00" fill="red">Cart Remove</text>
</g>
<!-- Cart System&#45;&gt;Cart Remove -->
<g id="edge11" class="edge">
<title>Cart System&#45;&gt;Cart Remove</title>
<path fill="none" stroke="red" d="M708,-71.7C708,-63.64 708,-53.89 708,-44.98"/>
<ellipse fill="red" stroke="red" cx="708" cy="-40.6" rx="4" ry="4"/>
</g>
<!-- Cart Confirmation -->
<g id="node13" class="node">
<title>Cart Confirmation</title>
<polygon fill="none" stroke="red" points="890,-36 772,-36 772,0 890,0 890,-36"/>
<text text-anchor="middle" x="831" y="-14.3" font-family="Times New Roman,serif" font-size="14.00" fill="red">Cart Confirmation</text>
</g>
<!-- Cart System&#45;&gt;Cart Confirmation -->
<g id="edge12" class="edge">
<title>Cart System&#45;&gt;Cart Confirmation</title>
<path fill="none" stroke="red" d="M738.72,-71.52C755.13,-62.18 775.49,-50.59 792.9,-40.68"/>
<ellipse fill="red" stroke="red" cx="796.76" cy="-38.49" rx="4" ry="4"/>
</g>
<!-- \n -->
<g id="node15" class="node">
<title>\n</title>
<polygon fill="none" stroke="black" points="505,-252 451,-252 451,-216 505,-216 505,-252"/>
</g>
</g>
</svg>
