<?xml version="1.0" encoding="UTF-8" standalone="no"?>
<!DOCTYPE svg PUBLIC "-//W3C//DTD SVG 1.1//EN"
 "http://www.w3.org/Graphics/SVG/1.1/DTD/svg11.dtd">
<!-- Generated by graphviz version 7.0.1 (20221109.1506)
 -->
<!-- Title: pos Pages: 1 -->
<svg width="336pt" height="332pt"
 viewBox="0.00 0.00 335.50 332.00" xmlns="http://www.w3.org/2000/svg" xmlns:xlink="http://www.w3.org/1999/xlink">
<g id="graph0" class="graph" transform="scale(1 1) rotate(0) translate(4 328)">
<title>pos</title>
<polygon fill="white" stroke="none" points="-4,4 -4,-328 331.5,-328 331.5,4 -4,4"/>
<!-- OR_1 -->
<g id="node1" class="node">
<title>OR_1</title>
<ellipse fill="lightgrey" stroke="black" cx="80.5" cy="-90" rx="27" ry="18"/>
<text text-anchor="middle" x="80.5" y="-86.3" font-family="Times New Roman,serif" font-size="14.00">OR</text>
</g>
<!-- Cash -->
<g id="node5" class="node">
<title>Cash</title>
<polygon fill="none" stroke="black" points="65.5,-36 11.5,-36 11.5,0 65.5,0 65.5,-36"/>
<text text-anchor="middle" x="38.5" y="-14.3" font-family="Times New Roman,serif" font-size="14.00">Cash</text>
</g>
<!-- OR_1&#45;&gt;Cash -->
<g id="edge4" class="edge">
<title>OR_1&#45;&gt;Cash</title>
<path fill="none" stroke="black" d="M70.76,-72.76C64.17,-61.78 55.48,-47.29 48.77,-36.12"/>
</g>
<!-- Debit Card -->
<g id="node6" class="node">
<title>Debit Card</title>
<polygon fill="none" stroke="black" points="161.5,-36 83.5,-36 83.5,0 161.5,0 161.5,-36"/>
<text text-anchor="middle" x="122.5" y="-14.3" font-family="Times New Roman,serif" font-size="14.00">Debit Card</text>
</g>
<!-- OR_1&#45;&gt;Debit Card -->
<g id="edge5" class="edge">
<title>OR_1&#45;&gt;Debit Card</title>
<path fill="none" stroke="black" d="M90.24,-72.76C96.83,-61.78 105.52,-47.29 112.23,-36.12"/>
</g>
<!-- POS -->
<g id="node2" class="node">
<title>POS</title>
<polygon fill="none" stroke="black" points="193.5,-324 139.5,-324 139.5,-288 193.5,-288 193.5,-324"/>
<text text-anchor="middle" x="166.5" y="-302.3" font-family="Times New Roman,serif" font-size="14.00">POS</text>
</g>
<!-- Product Purchase System -->
<g id="node3" class="node">
<title>Product Purchase System</title>
<polygon fill="none" stroke="black" points="161,-252 0,-252 0,-216 161,-216 161,-252"/>
<text text-anchor="middle" x="80.5" y="-230.3" font-family="Times New Roman,serif" font-size="14.00">Product Purchase System</text>
</g>
<!-- POS&#45;&gt;Product Purchase System -->
<g id="edge1" class="edge">
<title>POS&#45;&gt;Product Purchase System</title>
<path fill="none" stroke="black" d="M145.24,-287.7C134.18,-278.69 120.52,-267.57 108.6,-257.87"/>
<ellipse fill="black" stroke="black" cx="105.3" cy="-255.19" rx="4" ry="4"/>
</g>
<!-- Product Return System -->
<g id="node7" class="node">
<title>Product Return System</title>
<polygon fill="none" stroke="black" points="327.5,-252 179.5,-252 179.5,-216 327.5,-216 327.5,-252"/>
<text text-anchor="middle" x="253.5" y="-230.3" font-family="Times New Roman,serif" font-size="14.00">Product Return System</text>
</g>
<!-- POS&#45;&gt;Product Return System -->
<g id="edge6" class="edge">
<title>POS&#45;&gt;Product Return System</title>
<path fill="none" stroke="black" d="M188.01,-287.7C199.19,-278.69 213.02,-267.57 225.08,-257.87"/>
<ellipse fill="none" stroke="black" cx="228.43" cy="-255.17" rx="4" ry="4"/>
</g>
<!-- Payment System -->
<g id="node4" class="node">
<title>Payment System</title>
<polygon fill="none" stroke="black" points="135.5,-180 25.5,-180 25.5,-144 135.5,-144 135.5,-180"/>
<text text-anchor="middle" x="80.5" y="-158.3" font-family="Times New Roman,serif" font-size="14.00">Payment System</text>
</g>
<!-- Product Purchase System&#45;&gt;Payment System -->
<g id="edge2" class="edge">
<title>Product Purchase System&#45;&gt;Payment System</title>
<path fill="none" stroke="black" d="M80.5,-215.7C80.5,-207.64 80.5,-197.89 80.5,-188.98"/>
<ellipse fill="black" stroke="black" cx="80.5" cy="-184.6" rx="4" ry="4"/>
</g>
<!-- Payment System&#45;&gt;OR_1 -->
<g id="edge3" class="edge">
<title>Payment System&#45;&gt;OR_1</title>
<path fill="none" stroke="black" d="M80.5,-143.7C80.5,-132.85 80.5,-118.92 80.5,-108.1"/>
</g>
<!-- Return Product -->
<g id="node8" class="node">
<title>Return Product</title>
<polygon fill="none" stroke="black" points="304,-108 201,-108 201,-72 304,-72 304,-108"/>
<text text-anchor="middle" x="252.5" y="-86.3" font-family="Times New Roman,serif" font-size="14.00">Return Product</text>
</g>
<!-- Product Return System&#45;&gt;Return Product -->
<g id="edge7" class="edge">
<title>Product Return System&#45;&gt;Return Product</title>
<path fill="none" stroke="black" d="M249.44,-215.93C247.19,-205.6 244.63,-192.12 243.5,-180 242.01,-164.07 242.16,-159.94 243.5,-144 244.25,-135.12 245.69,-125.49 247.2,-116.91"/>
<ellipse fill="none" stroke="black" cx="248.02" cy="-112.52" rx="4" ry="4"/>
</g>
<!-- Refund -->
<g id="node9" class="node">
<title>Refund</title>
<polygon fill="none" stroke="black" points="310.5,-180 252.5,-180 252.5,-144 310.5,-144 310.5,-180"/>
<text text-anchor="middle" x="281.5" y="-158.3" font-family="Times New Roman,serif" font-size="14.00">Refund</text>
</g>
<!-- Product Return System&#45;&gt;Refund -->
<g id="edge8" class="edge">
<title>Product Return System&#45;&gt;Refund</title>
<path fill="none" stroke="black" d="M260.42,-215.7C263.71,-207.47 267.71,-197.48 271.33,-188.42"/>
<ellipse fill="none" stroke="black" cx="272.99" cy="-184.28" rx="4" ry="4"/>
</g>
<!-- Refund&#45;&gt;Return Product -->
<g id="edge9" class="edge">
<title>Refund&#45;&gt;Return Product</title>
<path fill="none" stroke="black" stroke-dasharray="5,2" d="M274.33,-143.7C271.21,-136.15 267.46,-127.12 263.97,-118.68"/>
<polygon fill="black" stroke="black" points="267.23,-117.4 260.17,-109.5 260.76,-120.08 267.23,-117.4"/>
</g>
<!-- \n -->
<g id="node10" class="node">
<title>\n</title>
<polygon fill="none" stroke="black" points="265.5,-324 211.5,-324 211.5,-288 265.5,-288 265.5,-324"/>
</g>
</g>
</svg>
