<?xml version="1.0" encoding="UTF-8" standalone="no"?>
<!DOCTYPE svg PUBLIC "-//W3C//DTD SVG 1.1//EN"
 "http://www.w3.org/Graphics/SVG/1.1/DTD/svg11.dtd">
<!-- Generated by graphviz version 7.0.1 (20221109.1506)
 -->
<!-- Title: G Pages: 1 -->
<svg width="1339pt" height="346pt"
 viewBox="64.80 64.80 1273.80 281.30" xmlns="http://www.w3.org/2000/svg" xmlns:xlink="http://www.w3.org/1999/xlink">
<g id="graph0" class="graph" transform="scale(1 1) rotate(0) translate(68.8 277.3)">
<title>G</title>
<polygon fill="white" stroke="none" points="-4,4 -4,-212.5 1205,-212.5 1205,4 -4,4"/>
<g id="clust1" class="cluster">
<title>cluster_0</title>
<polygon fill="white" stroke="crimson" points="8,-8 8,-163 439,-163 439,-8 8,-8"/>
<text text-anchor="middle" x="223.5" y="-144.6" font-family="Helvetica,Arial,sans-serif" font-size="18.00">Customer</text>
</g>
<g id="clust3" class="cluster">
<title>cluster_2</title>
<polygon fill="white" stroke="crimson" points="663,-44 663,-126 1193,-126 1193,-44 663,-44"/>
<text text-anchor="middle" x="928" y="-107.6" font-family="Helvetica,Arial,sans-serif" font-size="18.00">POS System</text>
</g>
<g id="clust2" class="cluster">
<title>cluster_1</title>
<polygon fill="white" stroke="crimson" points="447,-44 447,-126 655,-126 655,-44 447,-44"/>
<text text-anchor="middle" x="551" y="-107.6" font-family="Helvetica,Arial,sans-serif" font-size="18.00">Employee</text>
</g>
<!-- startCustomer -->
<g id="node1" class="node">
<title>startCustomer</title>
<ellipse fill="green" stroke="green" cx="27" cy="-71" rx="11" ry="11"/>
</g>
<!-- or4 -->
<g id="node2" class="node">
<title>or4</title>
<polygon fill="white" stroke="black" points="98,-94 72,-71 98,-48 124,-71 98,-94"/>
<text text-anchor="start" x="93" y="-68.3" font-family="Helvetica,Arial,sans-serif" font-weight="bold" font-size="14.00">X</text>
</g>
<!-- startCustomer&#45;&gt;or4 -->
<g id="edge1" class="edge">
<title>startCustomer&#45;&gt;or4</title>
<path fill="none" stroke="black" d="M38.48,-71C44.36,-71 52.08,-71 59.98,-71"/>
<polygon fill="black" stroke="black" points="59.97,-74.5 69.97,-71 59.97,-67.5 59.97,-74.5"/>
</g>
<!-- Add Product -->
<g id="node4" class="node">
<title>Add Product</title>
<path fill="#f4f06a" stroke="black" d="M168,-17C168,-17 240,-17 240,-17 246,-17 252,-23 252,-29 252,-29 252,-41 252,-41 252,-47 246,-53 240,-53 240,-53 168,-53 168,-53 162,-53 156,-47 156,-41 156,-41 156,-29 156,-29 156,-23 162,-17 168,-17"/>
<text text-anchor="middle" x="204" y="-31.3" font-family="Helvetica,Arial,sans-serif" font-size="14.00">Add Product</text>
</g>
<!-- or4&#45;&gt;Add Product -->
<g id="edge2" class="edge">
<title>or4&#45;&gt;Add Product</title>
<path fill="none" stroke="black" d="M117.12,-64.73C125.15,-61.95 135.09,-58.51 145.34,-54.96"/>
<polygon fill="black" stroke="black" points="146.31,-58.33 154.62,-51.75 144.02,-51.71 146.31,-58.33"/>
</g>
<!-- Remove Product -->
<g id="node5" class="node">
<title>Remove Product</title>
<path fill="#f4f06a" stroke="black" d="M154,-90C154,-90 254,-90 254,-90 260,-90 266,-96 266,-102 266,-102 266,-114 266,-114 266,-120 260,-126 254,-126 254,-126 154,-126 154,-126 148,-126 142,-120 142,-114 142,-114 142,-102 142,-102 142,-96 148,-90 154,-90"/>
<text text-anchor="middle" x="204" y="-104.3" font-family="Helvetica,Arial,sans-serif" font-size="14.00">Remove Product</text>
</g>
<!-- or4&#45;&gt;Remove Product -->
<g id="edge4" class="edge">
<title>or4&#45;&gt;Remove Product</title>
<path fill="none" stroke="black" d="M117.12,-77.44C124.23,-79.97 132.83,-83.04 141.82,-86.23"/>
<polygon fill="black" stroke="black" points="140.45,-89.46 151.05,-89.52 142.8,-82.87 140.45,-89.46"/>
</g>
<!-- or5 -->
<g id="node3" class="node">
<title>or5</title>
<polygon fill="white" stroke="black" points="310,-94 284,-71 310,-48 336,-71 310,-94"/>
<text text-anchor="start" x="305" y="-68.3" font-family="Helvetica,Arial,sans-serif" font-weight="bold" font-size="14.00">X</text>
</g>
<!-- Final Cart -->
<g id="node6" class="node">
<title>Final Cart</title>
<path fill="#f4f06a" stroke="black" d="M366,-53C366,-53 419,-53 419,-53 425,-53 431,-59 431,-65 431,-65 431,-77 431,-77 431,-83 425,-89 419,-89 419,-89 366,-89 366,-89 360,-89 354,-83 354,-77 354,-77 354,-65 354,-65 354,-59 360,-53 366,-53"/>
<text text-anchor="middle" x="392.5" y="-67.3" font-family="Helvetica,Arial,sans-serif" font-size="14.00">Final Cart</text>
</g>
<!-- or5&#45;&gt;Final Cart -->
<g id="edge6" class="edge">
<title>or5&#45;&gt;Final Cart</title>
<path fill="none" stroke="black" d="M336.47,-71C338.49,-71 340.57,-71 342.68,-71"/>
<polygon fill="black" stroke="black" points="342.62,-74.5 352.62,-71 342.62,-67.5 342.62,-74.5"/>
</g>
<!-- Add Product&#45;&gt;or5 -->
<g id="edge3" class="edge">
<title>Add Product&#45;&gt;or5</title>
<path fill="none" stroke="black" d="M251.83,-51.21C261.35,-54.51 271.11,-57.88 279.8,-60.89"/>
<polygon fill="black" stroke="black" points="278.49,-64.14 289.08,-64.1 280.78,-57.53 278.49,-64.14"/>
</g>
<!-- Remove Product&#45;&gt;or5 -->
<g id="edge5" class="edge">
<title>Remove Product&#45;&gt;or5</title>
<path fill="none" stroke="black" d="M255.48,-90.04C263.86,-87.06 272.3,-84.06 279.92,-81.35"/>
<polygon fill="black" stroke="black" points="281.06,-84.65 289.31,-78 278.72,-78.06 281.06,-84.65"/>
</g>
<!-- Checkout Cart / Enter Order -->
<g id="node7" class="node">
<title>Checkout Cart / Enter Order</title>
<path fill="#f4f06a" stroke="black" d="M467,-53C467,-53 635,-53 635,-53 641,-53 647,-59 647,-65 647,-65 647,-77 647,-77 647,-83 641,-89 635,-89 635,-89 467,-89 467,-89 461,-89 455,-83 455,-77 455,-77 455,-65 455,-65 455,-59 461,-53 467,-53"/>
<text text-anchor="middle" x="551" y="-67.3" font-family="Helvetica,Arial,sans-serif" font-size="14.00">Checkout Cart / Enter Order</text>
</g>
<!-- Final Cart&#45;&gt;Checkout Cart / Enter Order -->
<g id="edge7" class="edge">
<title>Final Cart&#45;&gt;Checkout Cart / Enter Order</title>
<path fill="none" stroke="black" d="M430.99,-71C435.09,-71 439.4,-71 443.85,-71"/>
<polygon fill="black" stroke="black" points="443.65,-74.5 453.65,-71 443.65,-67.5 443.65,-74.5"/>
</g>
<!-- Check Inventory List -->
<g id="node9" class="node">
<title>Check Inventory List</title>
<path fill="#f4f06a" stroke="black" d="M683,-53C683,-53 804,-53 804,-53 810,-53 816,-59 816,-65 816,-65 816,-77 816,-77 816,-83 810,-89 804,-89 804,-89 683,-89 683,-89 677,-89 671,-83 671,-77 671,-77 671,-65 671,-65 671,-59 677,-53 683,-53"/>
<text text-anchor="middle" x="743.5" y="-67.3" font-family="Helvetica,Arial,sans-serif" font-size="14.00">Check Inventory List</text>
</g>
<!-- Checkout Cart / Enter Order&#45;&gt;Check Inventory List -->
<g id="edge8" class="edge">
<title>Checkout Cart / Enter Order&#45;&gt;Check Inventory List</title>
<path fill="none" stroke="black" d="M646.97,-71C651.28,-71 655.59,-71 659.86,-71"/>
<polygon fill="black" stroke="black" points="659.56,-74.5 669.56,-71 659.56,-67.5 659.56,-74.5"/>
</g>
<!-- endPOS -->
<g id="node8" class="node">
<title>endPOS</title>
<ellipse fill="red" stroke="red" cx="1174" cy="-71" rx="11" ry="11"/>
</g>
<!-- Billing -->
<g id="node10" class="node">
<title>Billing</title>
<path fill="#f4f06a" stroke="black" d="M846,-53C846,-53 876,-53 876,-53 882,-53 888,-59 888,-65 888,-65 888,-77 888,-77 888,-83 882,-89 876,-89 876,-89 846,-89 846,-89 840,-89 834,-83 834,-77 834,-77 834,-65 834,-65 834,-59 840,-53 846,-53"/>
<text text-anchor="middle" x="861" y="-67.3" font-family="Helvetica,Arial,sans-serif" font-size="14.00">Billing</text>
</g>
<!-- Check Inventory List&#45;&gt;Billing -->
<g id="edge9" class="edge">
<title>Check Inventory List&#45;&gt;Billing</title>
<path fill="none" stroke="black" d="M815.68,-71C818.11,-71 820.52,-71 822.87,-71"/>
<polygon fill="black" stroke="black" points="822.58,-74.5 832.58,-71 822.58,-67.5 822.58,-74.5"/>
</g>
<!-- Payment Method -->
<g id="node11" class="node">
<title>Payment Method</title>
<path fill="#f4f06a" stroke="black" d="M918,-53C918,-53 1017,-53 1017,-53 1023,-53 1029,-59 1029,-65 1029,-65 1029,-77 1029,-77 1029,-83 1023,-89 1017,-89 1017,-89 918,-89 918,-89 912,-89 906,-83 906,-77 906,-77 906,-65 906,-65 906,-59 912,-53 918,-53"/>
<text text-anchor="middle" x="967.5" y="-67.3" font-family="Helvetica,Arial,sans-serif" font-size="14.00">Payment Method</text>
</g>
<!-- Billing&#45;&gt;Payment Method -->
<g id="edge10" class="edge">
<title>Billing&#45;&gt;Payment Method</title>
<path fill="none" stroke="black" d="M887.83,-71C890.05,-71 892.36,-71 894.72,-71"/>
<polygon fill="black" stroke="black" points="894.66,-74.5 904.66,-71 894.66,-67.5 894.66,-74.5"/>
</g>
<!-- Print Receipt -->
<g id="node12" class="node">
<title>Print Receipt</title>
<path fill="#f4f06a" stroke="black" d="M1059,-53C1059,-53 1133,-53 1133,-53 1139,-53 1145,-59 1145,-65 1145,-65 1145,-77 1145,-77 1145,-83 1139,-89 1133,-89 1133,-89 1059,-89 1059,-89 1053,-89 1047,-83 1047,-77 1047,-77 1047,-65 1047,-65 1047,-59 1053,-53 1059,-53"/>
<text text-anchor="middle" x="1096" y="-67.3" font-family="Helvetica,Arial,sans-serif" font-size="14.00">Print Receipt</text>
</g>
<!-- Payment Method&#45;&gt;Print Receipt -->
<g id="edge11" class="edge">
<title>Payment Method&#45;&gt;Print Receipt</title>
<path fill="none" stroke="black" d="M1028.79,-71C1031.22,-71 1033.66,-71 1036.1,-71"/>
<polygon fill="black" stroke="black" points="1035.85,-74.5 1045.85,-71 1035.85,-67.5 1035.85,-74.5"/>
</g>
<!-- Print Receipt&#45;&gt;endPOS -->
<g id="edge12" class="edge">
<title>Print Receipt&#45;&gt;endPOS</title>
<path fill="none" stroke="black" d="M1144.7,-71C1146.89,-71 1149.04,-71 1151.11,-71"/>
<polygon fill="black" stroke="black" points="1151.04,-74.5 1161.04,-71 1151.04,-67.5 1151.04,-74.5"/>
</g>
<!-- \n -->
<g id="node13" class="node">
<title>\n</title>
<path fill="#f4f06a" stroke="black" d="M12,-172C12,-172 42,-172 42,-172 48,-172 54,-178 54,-184 54,-184 54,-196 54,-196 54,-202 48,-208 42,-208 42,-208 12,-208 12,-208 6,-208 0,-202 0,-196 0,-196 0,-184 0,-184 0,-178 6,-172 12,-172"/>
</g>
</g>
</svg>
