<?xml version="1.0" encoding="UTF-8" standalone="no"?>
<!DOCTYPE svg PUBLIC "-//W3C//DTD SVG 1.1//EN"
 "http://www.w3.org/Graphics/SVG/1.1/DTD/svg11.dtd">
<!-- Generated by graphviz version 7.0.1 (20221109.1506)
 -->
<!-- Title: G Pages: 1 -->
<svg width="652pt" height="273pt"
 viewBox="64.80 64.80 586.80 208.30" xmlns="http://www.w3.org/2000/svg" xmlns:xlink="http://www.w3.org/1999/xlink">
<g id="graph0" class="graph" transform="scale(1 1) rotate(0) translate(68.8 204.3)">
<title>G</title>
<polygon fill="white" stroke="none" points="-4,4 -4,-139.5 518,-139.5 518,4 -4,4"/>
<g id="clust1" class="cluster">
<title>cluster_0</title>
<polygon fill="white" stroke="crimson" points="8,-8 8,-90 506,-90 506,-8 8,-8"/>
<text text-anchor="middle" x="257" y="-71.6" font-family="Helvetica,Arial,sans-serif" font-size="18.00">Employee</text>
</g>
<!-- startEmployee -->
<g id="node1" class="node">
<title>startEmployee</title>
<ellipse fill="green" stroke="green" cx="27" cy="-35" rx="11" ry="11"/>
</g>
<!-- Employee Login -->
<g id="node3" class="node">
<title>Employee Login</title>
<path fill="#f4f06a" stroke="black" d="M84,-17C84,-17 180,-17 180,-17 186,-17 192,-23 192,-29 192,-29 192,-41 192,-41 192,-47 186,-53 180,-53 180,-53 84,-53 84,-53 78,-53 72,-47 72,-41 72,-41 72,-29 72,-29 72,-23 78,-17 84,-17"/>
<text text-anchor="middle" x="132" y="-31.3" font-family="Helvetica,Arial,sans-serif" font-size="14.00">Employee Login</text>
</g>
<!-- startEmployee&#45;&gt;Employee Login -->
<g id="edge1" class="edge">
<title>startEmployee&#45;&gt;Employee Login</title>
<path fill="none" stroke="black" d="M38.25,-35C44.12,-35 52.05,-35 60.81,-35"/>
<polygon fill="black" stroke="black" points="60.76,-38.5 70.76,-35 60.76,-31.5 60.76,-38.5"/>
</g>
<!-- endEmployee -->
<g id="node2" class="node">
<title>endEmployee</title>
<ellipse fill="red" stroke="red" cx="487" cy="-35" rx="11" ry="11"/>
</g>
<!-- Order Entries -->
<g id="node4" class="node">
<title>Order Entries</title>
<path fill="#f4f06a" stroke="black" d="M222,-17C222,-17 299,-17 299,-17 305,-17 311,-23 311,-29 311,-29 311,-41 311,-41 311,-47 305,-53 299,-53 299,-53 222,-53 222,-53 216,-53 210,-47 210,-41 210,-41 210,-29 210,-29 210,-23 216,-17 222,-17"/>
<text text-anchor="middle" x="260.5" y="-31.3" font-family="Helvetica,Arial,sans-serif" font-size="14.00">Order Entries</text>
</g>
<!-- Employee Login&#45;&gt;Order Entries -->
<g id="edge2" class="edge">
<title>Employee Login&#45;&gt;Order Entries</title>
<path fill="none" stroke="black" d="M191.81,-35C194.23,-35 196.65,-35 199.08,-35"/>
<polygon fill="black" stroke="black" points="198.81,-38.5 208.81,-35 198.81,-31.5 198.81,-38.5"/>
</g>
<!-- Employee Logout -->
<g id="node5" class="node">
<title>Employee Logout</title>
<path fill="#f4f06a" stroke="black" d="M341,-17C341,-17 446,-17 446,-17 452,-17 458,-23 458,-29 458,-29 458,-41 458,-41 458,-47 452,-53 446,-53 446,-53 341,-53 341,-53 335,-53 329,-47 329,-41 329,-41 329,-29 329,-29 329,-23 335,-17 341,-17"/>
<text text-anchor="middle" x="393.5" y="-31.3" font-family="Helvetica,Arial,sans-serif" font-size="14.00">Employee Logout</text>
</g>
<!-- Order Entries&#45;&gt;Employee Logout -->
<g id="edge3" class="edge">
<title>Order Entries&#45;&gt;Employee Logout</title>
<path fill="none" stroke="black" d="M310.65,-35C313.03,-35 315.45,-35 317.88,-35"/>
<polygon fill="black" stroke="black" points="317.81,-38.5 327.81,-35 317.81,-31.5 317.81,-38.5"/>
</g>
<!-- Employee Logout&#45;&gt;endEmployee -->
<g id="edge4" class="edge">
<title>Employee Logout&#45;&gt;endEmployee</title>
<path fill="none" stroke="black" d="M457.55,-35C459.93,-35 462.24,-35 464.45,-35"/>
<polygon fill="black" stroke="black" points="464.19,-38.5 474.19,-35 464.19,-31.5 464.19,-38.5"/>
</g>
<!-- \n -->
<g id="node6" class="node">
<title>\n</title>
<path fill="#f4f06a" stroke="black" d="M12,-99C12,-99 42,-99 42,-99 48,-99 54,-105 54,-111 54,-111 54,-123 54,-123 54,-129 48,-135 42,-135 42,-135 12,-135 12,-135 6,-135 0,-129 0,-123 0,-123 0,-111 0,-111 0,-105 6,-99 12,-99"/>
</g>
</g>
</svg>
