<?xml version="1.0" encoding="UTF-8" standalone="no"?>
<!DOCTYPE svg PUBLIC "-//W3C//DTD SVG 1.1//EN"
 "http://www.w3.org/Graphics/SVG/1.1/DTD/svg11.dtd">
<!-- Generated by graphviz version 5.0.0 (20220707.1540)
 -->
<!-- Title: pos Pages: 1 -->
<svg width="301pt" height="260pt"
 viewBox="0.00 0.00 300.50 260.00" xmlns="http://www.w3.org/2000/svg" xmlns:xlink="http://www.w3.org/1999/xlink">
<g id="graph0" class="graph" transform="scale(1 1) rotate(0) translate(4 256)">
<title>pos</title>
<polygon fill="white" stroke="transparent" points="-4,4 -4,-256 296.5,-256 296.5,4 -4,4"/>
<!-- POS -->
<g id="node1" class="node">
<title>POS</title>
<polygon fill="none" stroke="black" points="144.5,-252 90.5,-252 90.5,-216 144.5,-216 144.5,-252"/>
<text text-anchor="middle" x="117.5" y="-230.3" font-family="Times New Roman,serif" font-size="14.00">POS</text>
</g>
<!-- Central Database -->
<g id="node2" class="node">
<title>Central Database</title>
<polygon fill="none" stroke="black" points="111,-108 0,-108 0,-72 111,-72 111,-108"/>
<text text-anchor="middle" x="55.5" y="-86.3" font-family="Times New Roman,serif" font-size="14.00">Central Database</text>
</g>
<!-- POS&#45;&gt;Central Database -->
<g id="edge1" class="edge">
<title>POS&#45;&gt;Central Database</title>
<path fill="none" stroke="black" d="M106.73,-215.73C100.64,-205.55 93.14,-192.3 87.5,-180 77.82,-158.9 69.08,-133.97 63.18,-115.87"/>
<ellipse fill="none" stroke="black" cx="61.9" cy="-111.88" rx="4" ry="4"/>
</g>
<!-- Specialized Admin System -->
<g id="node4" class="node">
<title>Specialized Admin System</title>
<polygon fill="none" stroke="black" points="262.5,-180 96.5,-180 96.5,-144 262.5,-144 262.5,-180"/>
<text text-anchor="middle" x="179.5" y="-158.3" font-family="Times New Roman,serif" font-size="14.00">Specialized Admin System</text>
</g>
<!-- POS&#45;&gt;Specialized Admin System -->
<g id="edge3" class="edge">
<title>POS&#45;&gt;Specialized Admin System</title>
<path fill="none" stroke="black" d="M132.83,-215.7C140.71,-206.8 150.43,-195.82 158.95,-186.2"/>
<ellipse fill="none" stroke="black" cx="161.7" cy="-183.1" rx="4" ry="4"/>
</g>
<!-- Product Database -->
<g id="node3" class="node">
<title>Product Database</title>
<polygon fill="none" stroke="black" points="150.5,-36 34.5,-36 34.5,0 150.5,0 150.5,-36"/>
<text text-anchor="middle" x="92.5" y="-14.3" font-family="Times New Roman,serif" font-size="14.00">Product Database</text>
</g>
<!-- Central Database&#45;&gt;Product Database -->
<g id="edge2" class="edge">
<title>Central Database&#45;&gt;Product Database</title>
<path fill="none" stroke="black" d="M64.65,-71.7C70.38,-60.85 77.74,-46.92 83.46,-36.1"/>
</g>
<!-- Admin Account -->
<g id="node5" class="node">
<title>Admin Account</title>
<polygon fill="none" stroke="black" points="292.5,-36 186.5,-36 186.5,0 292.5,0 292.5,-36"/>
<text text-anchor="middle" x="239.5" y="-14.3" font-family="Times New Roman,serif" font-size="14.00">Admin Account</text>
</g>
<!-- Specialized Admin System&#45;&gt;Admin Account -->
<g id="edge4" class="edge">
<title>Specialized Admin System&#45;&gt;Admin Account</title>
<path fill="none" stroke="black" d="M207.76,-143.97C219.93,-134.96 232.87,-122.7 239.5,-108 248.53,-87.97 247.53,-62.73 244.85,-44.24"/>
<ellipse fill="none" stroke="black" cx="244.19" cy="-40.22" rx="4" ry="4"/>
</g>
<!-- Sales Analytics -->
<g id="node6" class="node">
<title>Sales Analytics</title>
<polygon fill="none" stroke="black" points="230,-108 129,-108 129,-72 230,-72 230,-108"/>
<text text-anchor="middle" x="179.5" y="-86.3" font-family="Times New Roman,serif" font-size="14.00">Sales Analytics</text>
</g>
<!-- Specialized Admin System&#45;&gt;Sales Analytics -->
<g id="edge5" class="edge">
<title>Specialized Admin System&#45;&gt;Sales Analytics</title>
<path fill="none" stroke="black" d="M179.5,-143.7C179.5,-135.39 179.5,-125.28 179.5,-116.14"/>
<ellipse fill="none" stroke="black" cx="179.5" cy="-112.1" rx="4" ry="4"/>
</g>
<!-- Sales Analytics&#45;&gt;Product Database -->
<g id="edge6" class="edge">
<title>Sales Analytics&#45;&gt;Product Database</title>
<path fill="none" stroke="black" stroke-dasharray="5,2" d="M157.99,-71.7C147.04,-62.88 133.55,-52.03 121.68,-42.47"/>
<polygon fill="black" stroke="black" points="123.74,-39.65 113.76,-36.1 119.36,-45.1 123.74,-39.65"/>
</g>
<!-- Sales Analytics&#45;&gt;Admin Account -->
<g id="edge7" class="edge">
<title>Sales Analytics&#45;&gt;Admin Account</title>
<path fill="none" stroke="black" stroke-dasharray="5,2" d="M194.33,-71.7C201.52,-63.3 210.3,-53.07 218.19,-43.86"/>
<polygon fill="black" stroke="black" points="220.99,-45.97 224.84,-36.1 215.67,-41.42 220.99,-45.97"/>
</g>
</g>
</svg>
